<mxfile host="app.diagrams.net" modified="2023-10-25T00:04:15.650Z" agent="Mozilla/5.0 (Windows NT 10.0; Win64; x64) AppleWebKit/537.36 (KHTML, like Gecko) Chrome/118.0.0.0 Safari/537.36" etag="axCkQxJJ5QM5XHufEcuG" version="22.0.7" type="github">
  <diagram id="C5RBs43oDa-KdzZeNtuy" name="Page-1">
    <mxGraphModel dx="1467" dy="743" grid="1" gridSize="10" guides="1" tooltips="1" connect="1" arrows="1" fold="1" page="1" pageScale="1" pageWidth="827" pageHeight="1169" math="0" shadow="0">
      <root>
        <mxCell id="WIyWlLk6GJQsqaUBKTNV-0" />
        <mxCell id="WIyWlLk6GJQsqaUBKTNV-1" parent="WIyWlLk6GJQsqaUBKTNV-0" />
        <mxCell id="uaOrWUwennGpa3zISX---0" value="Início" style="ellipse;whiteSpace=wrap;html=1;" vertex="1" parent="WIyWlLk6GJQsqaUBKTNV-1">
          <mxGeometry x="320" y="70" width="120" height="80" as="geometry" />
        </mxCell>
        <mxCell id="uaOrWUwennGpa3zISX---1" value="" style="endArrow=classic;html=1;rounded=0;" edge="1" parent="WIyWlLk6GJQsqaUBKTNV-1">
          <mxGeometry width="50" height="50" relative="1" as="geometry">
            <mxPoint x="380" y="160" as="sourcePoint" />
            <mxPoint x="380" y="250" as="targetPoint" />
          </mxGeometry>
        </mxCell>
        <mxCell id="uaOrWUwennGpa3zISX---2" value="Lista de questões = {1,2,3,4,5,6,7,8,9,10}" style="rounded=0;whiteSpace=wrap;html=1;" vertex="1" parent="WIyWlLk6GJQsqaUBKTNV-1">
          <mxGeometry x="320" y="470" width="120" height="60" as="geometry" />
        </mxCell>
        <mxCell id="uaOrWUwennGpa3zISX---3" value="" style="endArrow=classic;html=1;rounded=0;" edge="1" parent="WIyWlLk6GJQsqaUBKTNV-1">
          <mxGeometry width="50" height="50" relative="1" as="geometry">
            <mxPoint x="379.5" y="540" as="sourcePoint" />
            <mxPoint x="379.5" y="640" as="targetPoint" />
          </mxGeometry>
        </mxCell>
        <mxCell id="uaOrWUwennGpa3zISX---5" value="Embaralhe as questões e selecione um item." style="rounded=0;whiteSpace=wrap;html=1;" vertex="1" parent="WIyWlLk6GJQsqaUBKTNV-1">
          <mxGeometry x="320" y="660" width="120" height="60" as="geometry" />
        </mxCell>
        <mxCell id="uaOrWUwennGpa3zISX---8" value="" style="endArrow=classic;html=1;rounded=0;" edge="1" parent="WIyWlLk6GJQsqaUBKTNV-1">
          <mxGeometry width="50" height="50" relative="1" as="geometry">
            <mxPoint x="379.5" y="730" as="sourcePoint" />
            <mxPoint x="379.5" y="810" as="targetPoint" />
          </mxGeometry>
        </mxCell>
        <mxCell id="uaOrWUwennGpa3zISX---11" value="Último item da lista?" style="rhombus;whiteSpace=wrap;html=1;" vertex="1" parent="WIyWlLk6GJQsqaUBKTNV-1">
          <mxGeometry x="305" y="820" width="150" height="80" as="geometry" />
        </mxCell>
        <mxCell id="uaOrWUwennGpa3zISX---12" value="" style="endArrow=classic;html=1;rounded=0;" edge="1" parent="WIyWlLk6GJQsqaUBKTNV-1">
          <mxGeometry width="50" height="50" relative="1" as="geometry">
            <mxPoint x="379.5" y="910" as="sourcePoint" />
            <mxPoint x="379.5" y="990" as="targetPoint" />
          </mxGeometry>
        </mxCell>
        <mxCell id="uaOrWUwennGpa3zISX---14" value="&lt;font style=&quot;font-size: 15px;&quot;&gt;Sim&lt;/font&gt;" style="edgeLabel;html=1;align=center;verticalAlign=middle;resizable=0;points=[];" vertex="1" connectable="0" parent="uaOrWUwennGpa3zISX---12">
          <mxGeometry x="-0.65" y="5" relative="1" as="geometry">
            <mxPoint x="-34" y="16" as="offset" />
          </mxGeometry>
        </mxCell>
        <mxCell id="uaOrWUwennGpa3zISX---13" value="Fim." style="ellipse;whiteSpace=wrap;html=1;" vertex="1" parent="WIyWlLk6GJQsqaUBKTNV-1">
          <mxGeometry x="320" y="1000" width="120" height="80" as="geometry" />
        </mxCell>
        <mxCell id="uaOrWUwennGpa3zISX---15" value="" style="endArrow=classic;html=1;rounded=0;" edge="1" parent="WIyWlLk6GJQsqaUBKTNV-1">
          <mxGeometry width="50" height="50" relative="1" as="geometry">
            <mxPoint x="470" y="859.5" as="sourcePoint" />
            <mxPoint x="730" y="860" as="targetPoint" />
          </mxGeometry>
        </mxCell>
        <mxCell id="uaOrWUwennGpa3zISX---16" value="&lt;font style=&quot;font-size: 15px;&quot;&gt;Não&lt;/font&gt;" style="text;html=1;align=center;verticalAlign=middle;resizable=0;points=[];autosize=1;strokeColor=none;fillColor=none;" vertex="1" parent="WIyWlLk6GJQsqaUBKTNV-1">
          <mxGeometry x="570" y="820" width="50" height="30" as="geometry" />
        </mxCell>
        <mxCell id="uaOrWUwennGpa3zISX---17" value="O usuário insere o seu nome." style="rounded=0;whiteSpace=wrap;html=1;" vertex="1" parent="WIyWlLk6GJQsqaUBKTNV-1">
          <mxGeometry x="320" y="260" width="120" height="60" as="geometry" />
        </mxCell>
        <mxCell id="uaOrWUwennGpa3zISX---18" value="" style="endArrow=classic;html=1;rounded=0;" edge="1" parent="WIyWlLk6GJQsqaUBKTNV-1">
          <mxGeometry width="50" height="50" relative="1" as="geometry">
            <mxPoint x="379.5" y="330" as="sourcePoint" />
            <mxPoint x="380" y="450" as="targetPoint" />
          </mxGeometry>
        </mxCell>
        <mxCell id="uaOrWUwennGpa3zISX---19" value="É uma questão de alternativa?" style="rhombus;whiteSpace=wrap;html=1;" vertex="1" parent="WIyWlLk6GJQsqaUBKTNV-1">
          <mxGeometry x="750" y="820" width="150" height="80" as="geometry" />
        </mxCell>
        <mxCell id="uaOrWUwennGpa3zISX---20" value="" style="endArrow=classic;html=1;rounded=0;" edge="1" parent="WIyWlLk6GJQsqaUBKTNV-1">
          <mxGeometry width="50" height="50" relative="1" as="geometry">
            <mxPoint x="775" y="900" as="sourcePoint" />
            <mxPoint x="650" y="970" as="targetPoint" />
          </mxGeometry>
        </mxCell>
        <mxCell id="uaOrWUwennGpa3zISX---21" value="&lt;span style=&quot;font-size: 15px;&quot;&gt;Sim&lt;br&gt;&lt;/span&gt;" style="edgeLabel;html=1;align=center;verticalAlign=middle;resizable=0;points=[];" vertex="1" connectable="0" parent="uaOrWUwennGpa3zISX---20">
          <mxGeometry x="-0.2472" relative="1" as="geometry">
            <mxPoint x="-31" y="-1" as="offset" />
          </mxGeometry>
        </mxCell>
        <mxCell id="uaOrWUwennGpa3zISX---22" value="O usuário insere sua resposta." style="rounded=0;whiteSpace=wrap;html=1;" vertex="1" parent="WIyWlLk6GJQsqaUBKTNV-1">
          <mxGeometry x="550" y="1000" width="120" height="60" as="geometry" />
        </mxCell>
        <mxCell id="uaOrWUwennGpa3zISX---25" value="" style="endArrow=classic;html=1;rounded=0;" edge="1" parent="WIyWlLk6GJQsqaUBKTNV-1">
          <mxGeometry width="50" height="50" relative="1" as="geometry">
            <mxPoint x="870" y="900" as="sourcePoint" />
            <mxPoint x="1010" y="980" as="targetPoint" />
          </mxGeometry>
        </mxCell>
        <mxCell id="uaOrWUwennGpa3zISX---26" value="&lt;span style=&quot;font-size: 15px;&quot;&gt;Não&lt;br&gt;&lt;/span&gt;" style="edgeLabel;html=1;align=center;verticalAlign=middle;resizable=0;points=[];" vertex="1" connectable="0" parent="uaOrWUwennGpa3zISX---25">
          <mxGeometry x="-0.2472" relative="1" as="geometry">
            <mxPoint x="25" y="-10" as="offset" />
          </mxGeometry>
        </mxCell>
        <mxCell id="uaOrWUwennGpa3zISX---27" value="O usuário seleciona uma alternativa." style="rounded=0;whiteSpace=wrap;html=1;" vertex="1" parent="WIyWlLk6GJQsqaUBKTNV-1">
          <mxGeometry x="970" y="1000" width="120" height="60" as="geometry" />
        </mxCell>
        <mxCell id="uaOrWUwennGpa3zISX---28" value="" style="endArrow=classic;html=1;rounded=0;" edge="1" parent="WIyWlLk6GJQsqaUBKTNV-1">
          <mxGeometry width="50" height="50" relative="1" as="geometry">
            <mxPoint x="609.5" y="1070" as="sourcePoint" />
            <mxPoint x="609.5" y="1160" as="targetPoint" />
          </mxGeometry>
        </mxCell>
        <mxCell id="uaOrWUwennGpa3zISX---30" value="" style="endArrow=classic;html=1;rounded=0;" edge="1" parent="WIyWlLk6GJQsqaUBKTNV-1">
          <mxGeometry width="50" height="50" relative="1" as="geometry">
            <mxPoint x="1026" y="1070" as="sourcePoint" />
            <mxPoint x="1026" y="1160" as="targetPoint" />
          </mxGeometry>
        </mxCell>
        <mxCell id="uaOrWUwennGpa3zISX---31" value="Acertou a questão?" style="rhombus;whiteSpace=wrap;html=1;" vertex="1" parent="WIyWlLk6GJQsqaUBKTNV-1">
          <mxGeometry x="535" y="1169" width="150" height="80" as="geometry" />
        </mxCell>
        <mxCell id="uaOrWUwennGpa3zISX---32" value="Acertou a questão?" style="rhombus;whiteSpace=wrap;html=1;" vertex="1" parent="WIyWlLk6GJQsqaUBKTNV-1">
          <mxGeometry x="950" y="1169" width="150" height="80" as="geometry" />
        </mxCell>
        <mxCell id="uaOrWUwennGpa3zISX---33" value="" style="endArrow=classic;html=1;rounded=0;" edge="1" parent="WIyWlLk6GJQsqaUBKTNV-1">
          <mxGeometry width="50" height="50" relative="1" as="geometry">
            <mxPoint x="580" y="1248" as="sourcePoint" />
            <mxPoint x="530" y="1298" as="targetPoint" />
          </mxGeometry>
        </mxCell>
        <mxCell id="uaOrWUwennGpa3zISX---35" value="&lt;font style=&quot;font-size: 15px;&quot;&gt;Sim&lt;/font&gt;" style="edgeLabel;html=1;align=center;verticalAlign=middle;resizable=0;points=[];" vertex="1" connectable="0" parent="uaOrWUwennGpa3zISX---33">
          <mxGeometry x="-0.26" y="4" relative="1" as="geometry">
            <mxPoint x="-29" y="-10" as="offset" />
          </mxGeometry>
        </mxCell>
        <mxCell id="uaOrWUwennGpa3zISX---34" value="" style="endArrow=classic;html=1;rounded=0;" edge="1" parent="WIyWlLk6GJQsqaUBKTNV-1">
          <mxGeometry width="50" height="50" relative="1" as="geometry">
            <mxPoint x="645" y="1248" as="sourcePoint" />
            <mxPoint x="685" y="1299" as="targetPoint" />
          </mxGeometry>
        </mxCell>
        <mxCell id="uaOrWUwennGpa3zISX---36" value="&lt;font style=&quot;font-size: 15px;&quot;&gt;Não&lt;br&gt;&lt;/font&gt;" style="edgeLabel;html=1;align=center;verticalAlign=middle;resizable=0;points=[];" vertex="1" connectable="0" parent="uaOrWUwennGpa3zISX---34">
          <mxGeometry x="-0.383" relative="1" as="geometry">
            <mxPoint x="28" y="-5" as="offset" />
          </mxGeometry>
        </mxCell>
        <mxCell id="uaOrWUwennGpa3zISX---37" value="Ganhe 100 pontos." style="rounded=0;whiteSpace=wrap;html=1;" vertex="1" parent="WIyWlLk6GJQsqaUBKTNV-1">
          <mxGeometry x="450" y="1309" width="120" height="60" as="geometry" />
        </mxCell>
        <mxCell id="uaOrWUwennGpa3zISX---38" value="" style="endArrow=classic;html=1;rounded=0;" edge="1" parent="WIyWlLk6GJQsqaUBKTNV-1">
          <mxGeometry width="50" height="50" relative="1" as="geometry">
            <mxPoint x="509.5" y="1379" as="sourcePoint" />
            <mxPoint x="509.5" y="1459" as="targetPoint" />
          </mxGeometry>
        </mxCell>
        <mxCell id="uaOrWUwennGpa3zISX---40" value="Prossiga." style="rounded=0;whiteSpace=wrap;html=1;" vertex="1" parent="WIyWlLk6GJQsqaUBKTNV-1">
          <mxGeometry x="450" y="1479" width="120" height="60" as="geometry" />
        </mxCell>
        <mxCell id="uaOrWUwennGpa3zISX---41" value="Perde uma vida." style="rounded=0;whiteSpace=wrap;html=1;" vertex="1" parent="WIyWlLk6GJQsqaUBKTNV-1">
          <mxGeometry x="645" y="1309" width="120" height="60" as="geometry" />
        </mxCell>
        <mxCell id="uaOrWUwennGpa3zISX---43" value="" style="endArrow=classic;html=1;rounded=0;" edge="1" parent="WIyWlLk6GJQsqaUBKTNV-1">
          <mxGeometry width="50" height="50" relative="1" as="geometry">
            <mxPoint x="704.5" y="1379" as="sourcePoint" />
            <mxPoint x="704.5" y="1459" as="targetPoint" />
          </mxGeometry>
        </mxCell>
        <mxCell id="uaOrWUwennGpa3zISX---44" value="Acabou as vidas?" style="rhombus;whiteSpace=wrap;html=1;" vertex="1" parent="WIyWlLk6GJQsqaUBKTNV-1">
          <mxGeometry x="630" y="1469" width="150" height="80" as="geometry" />
        </mxCell>
        <mxCell id="uaOrWUwennGpa3zISX---45" value="" style="endArrow=classic;html=1;rounded=0;" edge="1" parent="WIyWlLk6GJQsqaUBKTNV-1">
          <mxGeometry width="50" height="50" relative="1" as="geometry">
            <mxPoint x="670" y="1539" as="sourcePoint" />
            <mxPoint x="610" y="1609" as="targetPoint" />
          </mxGeometry>
        </mxCell>
        <mxCell id="uaOrWUwennGpa3zISX---46" value="&lt;span style=&quot;font-size: 15px;&quot;&gt;Sim&lt;br&gt;&lt;/span&gt;" style="edgeLabel;html=1;align=center;verticalAlign=middle;resizable=0;points=[];" vertex="1" connectable="0" parent="uaOrWUwennGpa3zISX---45">
          <mxGeometry x="0.0212" y="3" relative="1" as="geometry">
            <mxPoint x="-22" y="-18" as="offset" />
          </mxGeometry>
        </mxCell>
        <mxCell id="uaOrWUwennGpa3zISX---47" value="Fim." style="ellipse;whiteSpace=wrap;html=1;" vertex="1" parent="WIyWlLk6GJQsqaUBKTNV-1">
          <mxGeometry x="550" y="1619" width="120" height="80" as="geometry" />
        </mxCell>
        <mxCell id="uaOrWUwennGpa3zISX---49" value="" style="endArrow=classic;html=1;rounded=0;" edge="1" parent="WIyWlLk6GJQsqaUBKTNV-1">
          <mxGeometry width="50" height="50" relative="1" as="geometry">
            <mxPoint x="740" y="1539" as="sourcePoint" />
            <mxPoint x="800" y="1609" as="targetPoint" />
          </mxGeometry>
        </mxCell>
        <mxCell id="uaOrWUwennGpa3zISX---50" value="&lt;span style=&quot;font-size: 15px;&quot;&gt;Não&lt;br&gt;&lt;/span&gt;" style="edgeLabel;html=1;align=center;verticalAlign=middle;resizable=0;points=[];" vertex="1" connectable="0" parent="uaOrWUwennGpa3zISX---49">
          <mxGeometry x="0.0212" y="3" relative="1" as="geometry">
            <mxPoint x="17" y="-14" as="offset" />
          </mxGeometry>
        </mxCell>
        <mxCell id="uaOrWUwennGpa3zISX---51" value="O jogador tem 0 pontos?" style="rhombus;whiteSpace=wrap;html=1;" vertex="1" parent="WIyWlLk6GJQsqaUBKTNV-1">
          <mxGeometry x="730" y="1619" width="150" height="80" as="geometry" />
        </mxCell>
        <mxCell id="uaOrWUwennGpa3zISX---52" value="" style="endArrow=classic;html=1;rounded=0;" edge="1" parent="WIyWlLk6GJQsqaUBKTNV-1">
          <mxGeometry width="50" height="50" relative="1" as="geometry">
            <mxPoint x="770" y="1689" as="sourcePoint" />
            <mxPoint x="720" y="1769" as="targetPoint" />
          </mxGeometry>
        </mxCell>
        <mxCell id="uaOrWUwennGpa3zISX---55" value="&lt;font style=&quot;font-size: 15px;&quot;&gt;Sim&lt;/font&gt;" style="edgeLabel;html=1;align=center;verticalAlign=middle;resizable=0;points=[];" vertex="1" connectable="0" parent="uaOrWUwennGpa3zISX---52">
          <mxGeometry x="-0.227" y="4" relative="1" as="geometry">
            <mxPoint x="-24" y="-13" as="offset" />
          </mxGeometry>
        </mxCell>
        <mxCell id="uaOrWUwennGpa3zISX---53" value="" style="endArrow=classic;html=1;rounded=0;" edge="1" parent="WIyWlLk6GJQsqaUBKTNV-1">
          <mxGeometry width="50" height="50" relative="1" as="geometry">
            <mxPoint x="850" y="1689" as="sourcePoint" />
            <mxPoint x="890" y="1769" as="targetPoint" />
          </mxGeometry>
        </mxCell>
        <mxCell id="uaOrWUwennGpa3zISX---57" value="&lt;font style=&quot;font-size: 15px;&quot;&gt;Não&lt;/font&gt;" style="edgeLabel;html=1;align=center;verticalAlign=middle;resizable=0;points=[];" vertex="1" connectable="0" parent="uaOrWUwennGpa3zISX---53">
          <mxGeometry x="-0.25" relative="1" as="geometry">
            <mxPoint x="25" y="-10" as="offset" />
          </mxGeometry>
        </mxCell>
        <mxCell id="uaOrWUwennGpa3zISX---58" value="O jogador não perde pontos." style="rounded=0;whiteSpace=wrap;html=1;" vertex="1" parent="WIyWlLk6GJQsqaUBKTNV-1">
          <mxGeometry x="660" y="1779" width="120" height="60" as="geometry" />
        </mxCell>
        <mxCell id="uaOrWUwennGpa3zISX---60" value="O jogador perde 100 pontos." style="rounded=0;whiteSpace=wrap;html=1;" vertex="1" parent="WIyWlLk6GJQsqaUBKTNV-1">
          <mxGeometry x="840" y="1779" width="120" height="60" as="geometry" />
        </mxCell>
        <mxCell id="uaOrWUwennGpa3zISX---62" value="" style="endArrow=classic;html=1;rounded=0;" edge="1" parent="WIyWlLk6GJQsqaUBKTNV-1">
          <mxGeometry width="50" height="50" relative="1" as="geometry">
            <mxPoint x="730" y="1859" as="sourcePoint" />
            <mxPoint x="780" y="1949" as="targetPoint" />
          </mxGeometry>
        </mxCell>
        <mxCell id="uaOrWUwennGpa3zISX---63" value="" style="endArrow=classic;html=1;rounded=0;" edge="1" parent="WIyWlLk6GJQsqaUBKTNV-1">
          <mxGeometry width="50" height="50" relative="1" as="geometry">
            <mxPoint x="910" y="1859" as="sourcePoint" />
            <mxPoint x="860" y="1949" as="targetPoint" />
          </mxGeometry>
        </mxCell>
        <mxCell id="uaOrWUwennGpa3zISX---67" value="" style="endArrow=classic;html=1;rounded=0;" edge="1" parent="WIyWlLk6GJQsqaUBKTNV-1">
          <mxGeometry width="50" height="50" relative="1" as="geometry">
            <mxPoint x="1000" y="1249" as="sourcePoint" />
            <mxPoint x="950" y="1299" as="targetPoint" />
          </mxGeometry>
        </mxCell>
        <mxCell id="uaOrWUwennGpa3zISX---68" value="&lt;font style=&quot;font-size: 15px;&quot;&gt;Sim&lt;/font&gt;" style="edgeLabel;html=1;align=center;verticalAlign=middle;resizable=0;points=[];" vertex="1" connectable="0" parent="uaOrWUwennGpa3zISX---67">
          <mxGeometry x="-0.26" y="4" relative="1" as="geometry">
            <mxPoint x="-29" y="-10" as="offset" />
          </mxGeometry>
        </mxCell>
        <mxCell id="uaOrWUwennGpa3zISX---69" value="" style="endArrow=classic;html=1;rounded=0;" edge="1" parent="WIyWlLk6GJQsqaUBKTNV-1">
          <mxGeometry width="50" height="50" relative="1" as="geometry">
            <mxPoint x="1065" y="1249" as="sourcePoint" />
            <mxPoint x="1105" y="1300" as="targetPoint" />
          </mxGeometry>
        </mxCell>
        <mxCell id="uaOrWUwennGpa3zISX---70" value="&lt;font style=&quot;font-size: 15px;&quot;&gt;Não&lt;br&gt;&lt;/font&gt;" style="edgeLabel;html=1;align=center;verticalAlign=middle;resizable=0;points=[];" vertex="1" connectable="0" parent="uaOrWUwennGpa3zISX---69">
          <mxGeometry x="-0.383" relative="1" as="geometry">
            <mxPoint x="28" y="-5" as="offset" />
          </mxGeometry>
        </mxCell>
        <mxCell id="uaOrWUwennGpa3zISX---71" value="Ganhe 100 pontos." style="rounded=0;whiteSpace=wrap;html=1;" vertex="1" parent="WIyWlLk6GJQsqaUBKTNV-1">
          <mxGeometry x="870" y="1310" width="120" height="60" as="geometry" />
        </mxCell>
        <mxCell id="uaOrWUwennGpa3zISX---72" value="" style="endArrow=classic;html=1;rounded=0;" edge="1" parent="WIyWlLk6GJQsqaUBKTNV-1">
          <mxGeometry width="50" height="50" relative="1" as="geometry">
            <mxPoint x="929.5" y="1380" as="sourcePoint" />
            <mxPoint x="929.5" y="1460" as="targetPoint" />
          </mxGeometry>
        </mxCell>
        <mxCell id="uaOrWUwennGpa3zISX---73" value="Prossiga." style="rounded=0;whiteSpace=wrap;html=1;" vertex="1" parent="WIyWlLk6GJQsqaUBKTNV-1">
          <mxGeometry x="870" y="1480" width="120" height="60" as="geometry" />
        </mxCell>
        <mxCell id="uaOrWUwennGpa3zISX---74" value="Perde uma vida." style="rounded=0;whiteSpace=wrap;html=1;" vertex="1" parent="WIyWlLk6GJQsqaUBKTNV-1">
          <mxGeometry x="1065" y="1310" width="120" height="60" as="geometry" />
        </mxCell>
        <mxCell id="uaOrWUwennGpa3zISX---75" value="" style="endArrow=classic;html=1;rounded=0;" edge="1" parent="WIyWlLk6GJQsqaUBKTNV-1">
          <mxGeometry width="50" height="50" relative="1" as="geometry">
            <mxPoint x="1124.5" y="1380" as="sourcePoint" />
            <mxPoint x="1124.5" y="1460" as="targetPoint" />
          </mxGeometry>
        </mxCell>
        <mxCell id="uaOrWUwennGpa3zISX---76" value="Acabou as vidas?" style="rhombus;whiteSpace=wrap;html=1;" vertex="1" parent="WIyWlLk6GJQsqaUBKTNV-1">
          <mxGeometry x="1050" y="1470" width="150" height="80" as="geometry" />
        </mxCell>
        <mxCell id="uaOrWUwennGpa3zISX---77" value="" style="endArrow=classic;html=1;rounded=0;" edge="1" parent="WIyWlLk6GJQsqaUBKTNV-1">
          <mxGeometry width="50" height="50" relative="1" as="geometry">
            <mxPoint x="1090" y="1540" as="sourcePoint" />
            <mxPoint x="1030" y="1610" as="targetPoint" />
          </mxGeometry>
        </mxCell>
        <mxCell id="uaOrWUwennGpa3zISX---78" value="&lt;span style=&quot;font-size: 15px;&quot;&gt;Sim&lt;br&gt;&lt;/span&gt;" style="edgeLabel;html=1;align=center;verticalAlign=middle;resizable=0;points=[];" vertex="1" connectable="0" parent="uaOrWUwennGpa3zISX---77">
          <mxGeometry x="0.0212" y="3" relative="1" as="geometry">
            <mxPoint x="-22" y="-18" as="offset" />
          </mxGeometry>
        </mxCell>
        <mxCell id="uaOrWUwennGpa3zISX---79" value="Fim." style="ellipse;whiteSpace=wrap;html=1;" vertex="1" parent="WIyWlLk6GJQsqaUBKTNV-1">
          <mxGeometry x="970" y="1620" width="120" height="80" as="geometry" />
        </mxCell>
        <mxCell id="uaOrWUwennGpa3zISX---80" value="" style="endArrow=classic;html=1;rounded=0;" edge="1" parent="WIyWlLk6GJQsqaUBKTNV-1">
          <mxGeometry width="50" height="50" relative="1" as="geometry">
            <mxPoint x="1160" y="1540" as="sourcePoint" />
            <mxPoint x="1220" y="1610" as="targetPoint" />
          </mxGeometry>
        </mxCell>
        <mxCell id="uaOrWUwennGpa3zISX---81" value="&lt;span style=&quot;font-size: 15px;&quot;&gt;Não&lt;br&gt;&lt;/span&gt;" style="edgeLabel;html=1;align=center;verticalAlign=middle;resizable=0;points=[];" vertex="1" connectable="0" parent="uaOrWUwennGpa3zISX---80">
          <mxGeometry x="0.0212" y="3" relative="1" as="geometry">
            <mxPoint x="17" y="-14" as="offset" />
          </mxGeometry>
        </mxCell>
        <mxCell id="uaOrWUwennGpa3zISX---82" value="O jogador tem 0 pontos?" style="rhombus;whiteSpace=wrap;html=1;" vertex="1" parent="WIyWlLk6GJQsqaUBKTNV-1">
          <mxGeometry x="1150" y="1620" width="150" height="80" as="geometry" />
        </mxCell>
        <mxCell id="uaOrWUwennGpa3zISX---83" value="" style="endArrow=classic;html=1;rounded=0;" edge="1" parent="WIyWlLk6GJQsqaUBKTNV-1">
          <mxGeometry width="50" height="50" relative="1" as="geometry">
            <mxPoint x="1190" y="1690" as="sourcePoint" />
            <mxPoint x="1140" y="1770" as="targetPoint" />
          </mxGeometry>
        </mxCell>
        <mxCell id="uaOrWUwennGpa3zISX---84" value="&lt;font style=&quot;font-size: 15px;&quot;&gt;Sim&lt;/font&gt;" style="edgeLabel;html=1;align=center;verticalAlign=middle;resizable=0;points=[];" vertex="1" connectable="0" parent="uaOrWUwennGpa3zISX---83">
          <mxGeometry x="-0.227" y="4" relative="1" as="geometry">
            <mxPoint x="-24" y="-13" as="offset" />
          </mxGeometry>
        </mxCell>
        <mxCell id="uaOrWUwennGpa3zISX---85" value="" style="endArrow=classic;html=1;rounded=0;" edge="1" parent="WIyWlLk6GJQsqaUBKTNV-1">
          <mxGeometry width="50" height="50" relative="1" as="geometry">
            <mxPoint x="1270" y="1690" as="sourcePoint" />
            <mxPoint x="1310" y="1770" as="targetPoint" />
          </mxGeometry>
        </mxCell>
        <mxCell id="uaOrWUwennGpa3zISX---86" value="&lt;font style=&quot;font-size: 15px;&quot;&gt;Não&lt;/font&gt;" style="edgeLabel;html=1;align=center;verticalAlign=middle;resizable=0;points=[];" vertex="1" connectable="0" parent="uaOrWUwennGpa3zISX---85">
          <mxGeometry x="-0.25" relative="1" as="geometry">
            <mxPoint x="25" y="-10" as="offset" />
          </mxGeometry>
        </mxCell>
        <mxCell id="uaOrWUwennGpa3zISX---87" value="O jogador não perde pontos." style="rounded=0;whiteSpace=wrap;html=1;" vertex="1" parent="WIyWlLk6GJQsqaUBKTNV-1">
          <mxGeometry x="1080" y="1780" width="120" height="60" as="geometry" />
        </mxCell>
        <mxCell id="uaOrWUwennGpa3zISX---88" value="O jogador perde 100 pontos." style="rounded=0;whiteSpace=wrap;html=1;" vertex="1" parent="WIyWlLk6GJQsqaUBKTNV-1">
          <mxGeometry x="1260" y="1780" width="120" height="60" as="geometry" />
        </mxCell>
        <mxCell id="uaOrWUwennGpa3zISX---89" value="" style="endArrow=classic;html=1;rounded=0;" edge="1" parent="WIyWlLk6GJQsqaUBKTNV-1">
          <mxGeometry width="50" height="50" relative="1" as="geometry">
            <mxPoint x="1150" y="1860" as="sourcePoint" />
            <mxPoint x="1200" y="1950" as="targetPoint" />
          </mxGeometry>
        </mxCell>
        <mxCell id="uaOrWUwennGpa3zISX---90" value="" style="endArrow=classic;html=1;rounded=0;" edge="1" parent="WIyWlLk6GJQsqaUBKTNV-1">
          <mxGeometry width="50" height="50" relative="1" as="geometry">
            <mxPoint x="1330" y="1860" as="sourcePoint" />
            <mxPoint x="1280" y="1950" as="targetPoint" />
          </mxGeometry>
        </mxCell>
        <mxCell id="uaOrWUwennGpa3zISX---91" value="Prossiga selecionando o próximo item." style="rounded=0;whiteSpace=wrap;html=1;" vertex="1" parent="WIyWlLk6GJQsqaUBKTNV-1">
          <mxGeometry x="760" y="1960" width="120" height="60" as="geometry" />
        </mxCell>
        <mxCell id="uaOrWUwennGpa3zISX---92" value="Prossiga selecionando o próximo item." style="rounded=0;whiteSpace=wrap;html=1;" vertex="1" parent="WIyWlLk6GJQsqaUBKTNV-1">
          <mxGeometry x="1180" y="1960" width="120" height="60" as="geometry" />
        </mxCell>
        <mxCell id="uaOrWUwennGpa3zISX---96" value="" style="endArrow=none;html=1;rounded=0;" edge="1" parent="WIyWlLk6GJQsqaUBKTNV-1">
          <mxGeometry width="50" height="50" relative="1" as="geometry">
            <mxPoint x="824.41" y="2110" as="sourcePoint" />
            <mxPoint x="824.41" y="2030" as="targetPoint" />
          </mxGeometry>
        </mxCell>
        <mxCell id="uaOrWUwennGpa3zISX---99" value="" style="endArrow=none;html=1;rounded=0;" edge="1" parent="WIyWlLk6GJQsqaUBKTNV-1">
          <mxGeometry width="50" height="50" relative="1" as="geometry">
            <mxPoint x="1241" y="2110" as="sourcePoint" />
            <mxPoint x="1241" y="2030" as="targetPoint" />
          </mxGeometry>
        </mxCell>
        <mxCell id="uaOrWUwennGpa3zISX---100" value="" style="endArrow=none;html=1;rounded=0;" edge="1" parent="WIyWlLk6GJQsqaUBKTNV-1">
          <mxGeometry width="50" height="50" relative="1" as="geometry">
            <mxPoint x="820" y="2110" as="sourcePoint" />
            <mxPoint x="1240" y="2110" as="targetPoint" />
          </mxGeometry>
        </mxCell>
        <mxCell id="uaOrWUwennGpa3zISX---101" value="" style="endArrow=none;html=1;rounded=0;" edge="1" parent="WIyWlLk6GJQsqaUBKTNV-1">
          <mxGeometry width="50" height="50" relative="1" as="geometry">
            <mxPoint x="1241" y="2110" as="sourcePoint" />
            <mxPoint x="1490" y="2110" as="targetPoint" />
          </mxGeometry>
        </mxCell>
        <mxCell id="uaOrWUwennGpa3zISX---102" value="" style="endArrow=none;html=1;rounded=0;" edge="1" parent="WIyWlLk6GJQsqaUBKTNV-1">
          <mxGeometry width="50" height="50" relative="1" as="geometry">
            <mxPoint x="1490" y="2112.35" as="sourcePoint" />
            <mxPoint x="1490" y="760" as="targetPoint" />
          </mxGeometry>
        </mxCell>
      </root>
    </mxGraphModel>
  </diagram>
</mxfile>
